<?xml version="1.0" standalone="no"?>
<!DOCTYPE svg PUBLIC "-//W3C//DTD SVG 20010904//EN"
 "http://www.w3.org/TR/2001/REC-SVG-20010904/DTD/svg10.dtd">
<svg version="1.0" xmlns="http://www.w3.org/2000/svg"
 width="700.000000pt" height="700.000000pt" viewBox="0 0 700.000000 700.000000"
 preserveAspectRatio="xMidYMid meet">
<metadata>
Created by potrace 1.14, written by Peter Selinger 2001-2017
</metadata>
<g transform="translate(0.000000,700.000000) scale(0.100000,-0.100000)"
fill="#000000" stroke="none">
<path d="M702 6979 c-274 -33 -519 -250 -581 -514 -19 -82 -21 -97 -22 -165
-4 -337 224 -628 549 -699 116 -25 291 -4 410 50 66 30 170 104 208 148 12 14
32 37 44 51 79 90 139 249 147 390 3 52 10 98 15 101 12 8 256 4 323 -5 45 -6
116 -18 192 -32 182 -33 504 -144 743 -256 243 -113 492 -255 720 -409 177
-119 217 -148 329 -234 57 -44 116 -89 130 -100 26 -19 183 -148 207 -170 6
-5 44 -39 85 -75 135 -118 192 -173 380 -360 247 -246 422 -444 672 -760 7 -8
50 -66 96 -127 46 -62 86 -113 90 -113 9 1 106 164 209 350 l41 75 -61 80
c-125 163 -344 424 -487 580 -108 117 -450 455 -561 554 -161 144 -169 151
-260 225 -47 39 -87 72 -90 75 -3 3 -34 28 -70 56 -36 27 -67 52 -70 55 -16
18 -475 340 -485 340 -2 0 -38 23 -79 50 -42 28 -77 50 -80 50 -2 0 -33 17
-68 39 -59 36 -137 78 -328 178 -285 149 -738 312 -995 357 -16 3 -41 8 -55
11 -22 4 -43 7 -140 20 -19 3 -55 7 -80 11 -107 14 -362 6 -478 -15 -40 -8
-46 -6 -79 24 -52 48 -159 109 -233 133 -57 19 -87 24 -200 36 -14 1 -54 -1
-88 -5z m183 -488 c110 -63 153 -198 96 -309 -27 -53 -55 -79 -113 -107 -79
-37 -164 -24 -232 36 -167 146 -61 416 159 405 29 -2 67 -12 90 -25z"/>
<path d="M6217 6985 c-1 -2 -24 -5 -52 -8 -149 -17 -293 -86 -396 -190 -146
-147 -212 -315 -205 -521 2 -61 6 -118 8 -126 3 -8 10 -35 17 -60 48 -170 195
-343 356 -420 87 -41 204 -70 287 -70 l69 0 -5 -172 c-5 -184 -7 -197 -37
-353 -24 -123 -21 -109 -54 -230 -28 -102 -113 -348 -145 -420 -10 -22 -32
-71 -49 -110 -41 -96 -152 -320 -205 -413 -24 -42 -52 -93 -63 -112 -167 -296
-551 -829 -768 -1066 -5 -6 -39 -44 -75 -85 -167 -188 -461 -484 -635 -638
-41 -37 -185 -161 -228 -198 -37 -32 -254 -203 -301 -237 -28 -21 -35 -31 -25
-35 8 -3 48 -28 89 -55 103 -68 311 -186 326 -186 22 0 354 280 558 470 112
104 343 338 446 450 52 56 100 108 105 114 13 14 125 145 182 212 23 27 82
101 132 164 50 63 94 120 98 125 5 6 26 35 48 65 22 30 42 57 45 60 16 15 167
237 251 370 433 680 690 1334 754 1920 11 109 12 407 0 460 -20 96 -19 106 28
163 140 172 187 437 115 652 -91 273 -328 457 -616 478 -28 2 -53 3 -55 2z
m139 -500 c83 -48 127 -151 106 -244 -16 -68 -47 -113 -106 -152 -41 -27 -59
-32 -110 -32 -131 -1 -230 97 -229 228 1 181 186 290 339 200z"/>
<path d="M5317 6804 c-1 -1 -27 -5 -57 -9 -45 -5 -232 -40 -325 -60 -11 -3
-33 -7 -50 -11 -16 -3 -120 -28 -229 -55 -171 -42 -227 -62 -395 -135 -108
-48 -274 -125 -369 -172 l-172 -85 46 -31 c47 -32 281 -195 345 -241 l36 -25
109 51 c363 171 718 281 984 304 45 4 79 13 86 21 6 8 14 40 17 72 11 101 64
249 124 345 l24 38 -86 -2 c-47 -2 -87 -4 -88 -5z"/>
<path d="M2834 5672 c-34 -26 -85 -67 -114 -92 -30 -25 -88 -74 -129 -109
-177 -148 -543 -502 -711 -687 -140 -154 -133 -146 -299 -343 -273 -324 -588
-786 -784 -1149 -420 -777 -597 -1489 -511 -2055 6 -37 -13 -73 -63 -125 -22
-23 -91 -174 -102 -222 -19 -85 -21 -105 -22 -176 -4 -485 471 -827 918 -659
124 47 235 134 317 250 258 364 108 884 -304 1051 -32 13 -71 26 -87 29 -15 2
-39 8 -53 11 -14 3 -57 6 -96 7 l-72 1 0 135 c1 223 34 426 115 691 38 127
120 350 134 365 5 5 9 15 9 22 0 21 137 308 208 438 76 138 88 158 147 255
464 767 1186 1556 1932 2115 l52 39 -62 41 c-54 37 -353 215 -360 215 -1 0
-29 -22 -63 -48z m-1959 -4756 c186 -86 169 -360 -26 -426 -177 -60 -344 115
-282 297 18 54 87 125 136 141 55 17 119 13 172 -12z"/>
<path d="M266 5417 c2 -135 18 -293 39 -397 2 -14 10 -50 16 -80 36 -184 113
-433 206 -665 64 -161 252 -555 264 -555 3 0 23 28 44 63 35 57 184 278 227
337 l19 26 -69 154 c-128 289 -215 559 -258 800 -2 14 -6 34 -9 45 -5 26 -17
131 -19 172 -1 39 -2 40 -53 46 -63 9 -172 36 -207 51 -80 35 -124 57 -162 80
l-41 25 3 -102z"/>
<path d="M1539 3230 c-64 -105 -87 -143 -95 -158 -4 -8 -29 -53 -55 -100 -27
-48 -49 -93 -49 -101 0 -34 398 -515 604 -730 203 -210 442 -441 586 -566 30
-26 73 -63 95 -82 99 -87 404 -325 535 -416 722 -507 1461 -826 2049 -884 152
-15 442 -8 527 13 16 4 39 -8 82 -43 122 -98 255 -146 412 -147 111 -1 161 7
244 39 106 40 174 85 253 167 207 214 255 546 118 807 -218 415 -750 502
-1079 177 -122 -121 -193 -281 -203 -456 -3 -52 -7 -97 -8 -98 -5 -6 -267 -3
-292 2 -12 2 -50 7 -84 11 -35 4 -66 8 -69 10 -3 2 -22 6 -44 9 -72 12 -240
57 -371 101 -617 206 -1334 654 -1965 1229 -93 84 -394 381 -469 462 -35 38
-82 89 -105 114 -136 147 -331 385 -470 575 -49 66 -92 124 -96 128 -5 5 -28
-23 -51 -63z m4825 -2329 c68 -47 101 -110 100 -191 0 -131 -95 -231 -218
-232 -194 -2 -300 220 -180 378 13 18 47 44 76 59 73 37 155 32 222 -14z"/>
<path d="M6085 3059 c-77 -116 -139 -216 -137 -222 1 -7 26 -64 54 -127 77
-173 82 -185 131 -325 50 -145 66 -193 71 -221 3 -10 13 -53 24 -94 11 -41 23
-88 26 -105 2 -16 10 -57 16 -90 5 -33 13 -85 16 -115 3 -30 7 -64 9 -75 2
-11 4 -27 4 -36 1 -11 11 -16 31 -17 47 -1 139 -22 211 -48 64 -23 175 -77
194 -95 5 -5 12 -9 16 -9 8 0 4 197 -6 282 -9 79 -24 190 -29 213 -2 11 -11
54 -20 95 -32 153 -93 367 -136 475 -4 11 -24 65 -45 119 -69 188 -265 606
-284 606 -3 0 -69 -95 -146 -211z"/>
<path d="M2755 959 c-234 -115 -592 -238 -795 -273 -19 -3 -45 -8 -56 -10 -42
-8 -92 -15 -150 -22 -32 -3 -61 -8 -63 -10 -3 -3 -6 -24 -8 -47 -6 -82 -44
-203 -97 -311 l-54 -109 136 7 c138 6 259 21 407 50 87 17 328 81 360 96 11 5
43 16 70 25 53 17 160 58 210 80 17 7 46 20 65 28 85 35 194 86 305 143 172
89 205 107 205 115 0 3 -37 30 -82 60 -46 29 -138 93 -205 141 -67 48 -128 88
-135 87 -7 0 -58 -23 -113 -50z"/>
</g>
</svg>
